<svg width="57" height="58" viewBox="0 0 57 58" fill="none" xmlns="http://www.w3.org/2000/svg">
<path fill-rule="evenodd" clip-rule="evenodd" d="M55.3671 23.1303L32.0338 1.23927C32.0223 1.22938 32.0116 1.21872 32.0017 1.20737C30.2215 -0.402457 27.5022 -0.402457 25.7221 1.20737L25.69 1.23927L2.38292 23.1303C1.42172 24.0092 0.874802 25.2484 0.875 26.5468V53.3596C0.875 55.9224 2.96434 58 5.54167 58H19.5417C22.119 58 24.2083 55.9224 24.2083 53.3596V39.4384H33.5417V53.3596C33.5417 55.9224 35.631 58 38.2083 58H52.2083C54.7857 58 56.875 55.9224 56.875 53.3596V26.5468C56.8752 25.2484 56.3283 24.0092 55.3671 23.1303ZM52.2083 53.3596H38.2083V39.4384C38.2083 36.8756 36.119 34.798 33.5417 34.798H24.2083C21.631 34.798 19.5417 36.8756 19.5417 39.4384V53.3596H5.54167V26.5468L5.57375 26.5178L28.875 4.63546L52.1792 26.512L52.2113 26.541L52.2083 53.3596Z" fill="white"/>
</svg>
