<svg width="57" height="62" viewBox="0 0 57 62" fill="none" xmlns="http://www.w3.org/2000/svg">
<path fill-rule="evenodd" clip-rule="evenodd" d="M55.8555 44.8577C54.2295 42.0942 51.8125 34.2751 51.8125 24.0625C51.8125 11.2909 41.3192 0.9375 28.375 0.9375C15.4308 0.9375 4.9375 11.2909 4.9375 24.0625C4.9375 34.278 2.51758 42.0942 0.891602 44.8577C0.0464563 46.2876 0.0403099 48.0542 0.875484 49.4899C1.71066 50.9255 3.25979 51.8113 4.9375 51.8125H16.8936C18.0083 57.1947 22.8074 61.0599 28.375 61.0599C33.9426 61.0599 38.7417 57.1947 39.8564 51.8125H51.8125C53.4897 51.8103 55.0379 50.9241 55.8723 49.4886C56.7068 48.0531 56.7004 46.2872 55.8555 44.8577ZM28.375 56.4375C25.3961 56.4366 22.741 54.5836 21.748 51.8125H35.002C34.009 54.5836 31.3539 56.4366 28.375 56.4375ZM4.9375 47.1875C7.19336 43.3603 9.625 34.4919 9.625 24.0625C9.625 13.8452 18.0197 5.5625 28.375 5.5625C38.7303 5.5625 47.125 13.8452 47.125 24.0625C47.125 34.4832 49.5508 43.3516 51.8125 47.1875H4.9375Z" fill="white"/>
</svg>
