<svg width="67" height="64" viewBox="0 0 67 64" fill="none" xmlns="http://www.w3.org/2000/svg">
<path fill-rule="evenodd" clip-rule="evenodd" d="M63.5621 59.8402C63.1429 60.558 62.3681 61.0002 61.5297 61H5.21888C4.38106 60.9992 3.60728 60.5567 3.18874 59.8391C2.7702 59.1216 2.77043 58.2378 3.18934 57.5205C7.65608 49.8858 14.5395 44.4114 22.5726 41.8162C14.4052 37.0092 10.4928 27.3998 13.0142 18.3391C15.5356 9.2785 23.8692 3 33.3743 3C42.8793 3 51.2129 9.2785 53.7343 18.3391C56.2557 27.3998 52.3433 37.0092 44.176 41.8162C52.209 44.4114 59.0925 49.8858 63.5592 57.5205C63.9792 58.2377 63.9803 59.1219 63.5621 59.8402Z" stroke="white" stroke-width="5"/>
</svg>
