<svg width="61" height="62" viewBox="0 0 61 62" fill="none" xmlns="http://www.w3.org/2000/svg">
<path fill-rule="evenodd" clip-rule="evenodd" d="M60.2611 57.1139L45.7877 42.6434C54.5023 32.181 53.4464 16.7147 43.3907 7.53382C33.335 -1.64706 17.8366 -1.29484 8.2084 8.3334C-1.41984 17.9616 -1.77206 33.46 7.40882 43.5157C16.5897 53.5714 32.056 54.6273 42.5184 45.9127L56.9889 60.3861C57.8925 61.2897 59.3575 61.2897 60.2611 60.3861C61.1647 59.4825 61.1647 58.0175 60.2611 57.1139ZM5.4375 26.375C5.4375 14.8806 14.7556 5.5625 26.25 5.5625C37.7444 5.5625 47.0625 14.8806 47.0625 26.375C47.0625 37.8694 37.7444 47.1875 26.25 47.1875C14.7609 47.1748 5.45024 37.8641 5.4375 26.375Z" fill="white"/>
</svg>
